<?xml version="1.0" standalone="no"?>
<!DOCTYPE svg PUBLIC "-//W3C//DTD SVG 20010904//EN"
 "http://www.w3.org/TR/2001/REC-SVG-20010904/DTD/svg10.dtd">
<svg version="1.0" xmlns="http://www.w3.org/2000/svg"
 width="5110.000000pt" height="5000.000000pt" viewBox="0 0 5110.000000 5000.000000"
 preserveAspectRatio="xMidYMid meet">

<g transform="translate(0.000000,5000.000000) scale(0.100000,-0.100000)"
fill="#000000" stroke="none">
<path d="M25400 40445 l0 -1615 -3767 -3 -3768 -2 -93 -22 c-275 -64 -472
-168 -663 -350 -185 -178 -306 -385 -377 -648 l-27 -100 -3 -5295 c-2 -4873
-1 -5293 14 -5272 27 39 146 293 269 577 125 287 177 396 231 486 l34 57 0
4777 c0 4327 1 4783 16 4839 48 185 205 343 389 391 53 13 711 15 6130 15
5419 0 6077 -2 6130 -15 190 -50 344 -210 390 -407 13 -59 15 -1370 13 -12540
l-3 -12473 -24 -70 c-84 -250 -247 -413 -496 -497 l-70 -23 -5905 -3 c-5368
-2 -5912 -1 -5984 13 -259 52 -463 232 -553 490 l-28 80 -3 4883 -2 4882 167
209 c93 114 224 270 293 346 871 961 1432 1957 1555 2761 69 449 -83 1240
-336 1747 -221 442 -575 807 -930 958 -80 34 -110 33 -135 -6 -32 -49 -16 -67
128 -138 160 -79 277 -165 419 -307 419 -417 674 -1070 738 -1890 43 -558
-309 -1436 -909 -2265 -191 -264 -367 -481 -616 -760 -241 -271 -994 -1216
-994 -1248 0 -28 34 -67 58 -67 11 0 13 -706 12 -4677 -2 -5156 -7 -4738 59
-4940 154 -471 543 -809 1046 -910 86 -17 344 -18 5975 -15 6497 2 5959 -3
6165 63 456 148 787 517 902 1004 15 64 17 449 24 4575 4 2478 7 5919 6 7648
l-2 3142 683 0 682 0 0 320 0 320 -432 2 -433 3 -3 518 -2 517 -250 0 -250 0
2 598 3 597 248 3 247 2 0 -595 0 -595 325 0 325 0 0 710 0 710 -325 0 -325 0
0 205 0 205 -250 0 -250 0 0 340 0 340 250 0 250 0 0 325 0 325 -250 0 -250 0
0 395 0 395 695 0 695 0 0 -940 0 -940 320 0 320 0 2 488 3 487 1238 3 1237 2
0 830 0 830 1145 0 1145 0 -2 -307 -3 -308 -482 -3 -483 -2 0 -320 0 -320
1155 0 1155 0 0 320 0 320 315 0 315 0 0 310 0 310 -320 0 -320 0 -2 -307 -3
-308 -340 0 -340 0 -3 308 -2 307 -185 0 -185 0 0 320 0 320 -2080 0 -2080 0
0 -830 0 -830 -440 0 -440 0 0 780 0 780 -320 0 -320 0 0 -340 0 -340 -695 0
-695 0 0 325 0 325 320 0 320 0 0 320 0 320 -320 0 -320 0 0 645 0 645 310 0
310 0 0 320 0 320 -309 0 -308 0 -6 193 c-4 171 -8 205 -35 308 -48 185 -126
349 -234 486 -26 35 -48 65 -48 68 0 3 115 5 255 5 l255 0 0 815 0 815 -310 0
-310 0 0 -340 0 -340 -290 0 -290 0 0 345 0 345 285 0 285 0 0 320 0 320 -285
0 -285 0 0 705 0 705 -2230 0 -2230 0 0 -1615z m3750 -355 l0 -1260 -1520 0
-1520 0 0 1260 0 1260 1520 0 1520 0 0 -1260z m1290 -1510 l0 -100 -86 65
c-47 36 -110 79 -140 96 -30 17 -54 33 -54 35 0 2 63 4 140 4 l140 0 0 -100z"/>
<path d="M26710 39830 l0 -920 920 0 920 0 0 920 0 920 -920 0 -920 0 0 -920z"/>
<path d="M36340 41425 l0 -635 -155 0 -155 0 0 -310 0 -310 820 0 820 0 0 310
0 310 320 0 320 0 2 313 3 312 663 3 662 2 0 320 0 320 -780 0 -780 0 0 -325
0 -325 -205 0 -205 0 0 -310 0 -310 -342 2 -343 3 -3 633 -2 632 -320 0 -320
0 0 -635z"/>
<path d="M30580 41730 l0 -320 315 0 315 0 0 -360 0 -360 310 0 310 0 0 680 0
680 -625 0 -625 0 0 -320z"/>
<path d="M34020 41685 l0 -365 -510 0 -510 0 0 -305 0 -305 828 -2 827 -3 3
-932 2 -933 -530 0 -530 0 0 -325 0 -325 1265 0 1265 0 0 -390 0 -390 320 0
320 0 0 -325 0 -325 -200 0 -200 0 0 -305 0 -305 320 0 320 0 0 310 0 310 340
0 340 0 0 -325 0 -325 650 0 650 0 0 -430 0 -430 320 0 320 0 0 1185 0 1185
-320 0 -320 0 -2 -432 -3 -433 -325 0 -325 0 -3 323 -2 322 -780 0 -780 0 0
545 0 545 325 0 325 0 0 195 0 195 1110 0 1110 0 0 320 0 320 -1110 0 -1110 0
0 195 0 195 -325 0 -325 0 0 -540 0 -540 -735 0 -735 0 0 1240 0 1240 -320 0
-320 0 0 365 0 365 -320 0 -320 0 0 -365z"/>
<path d="M38320 40480 l0 -310 320 0 320 0 0 310 0 310 -320 0 -320 0 0 -310z"/>
<path d="M31840 39070 l0 -1660 325 0 325 0 0 -630 0 -630 320 0 320 0 0 -640
0 -640 320 0 320 0 0 650 0 650 -320 0 -320 0 0 635 0 635 -322 2 -323 3 -3
1643 -2 1642 -320 0 -320 0 0 -1660z"/>
<path d="M33210 39770 l0 -470 470 0 470 0 0 470 0 470 -470 0 -470 0 0 -470z"/>
<path d="M35720 39525 l0 -305 320 0 320 0 0 305 0 305 -320 0 -320 0 0 -305z"/>
<path d="M33970 37135 l0 -725 285 0 285 0 0 725 0 725 -285 0 -285 0 0 -725z"/>
<path d="M35040 36450 l0 -310 -155 0 -155 0 0 -310 0 -310 815 0 815 0 0 310
0 310 -340 0 -340 0 0 310 0 310 -320 0 -320 0 0 -310z"/>
<path d="M31520 35830 l0 -310 320 0 320 0 0 310 0 310 -320 0 -320 0 0 -310z"/>
<path d="M37010 35830 l0 -310 320 0 320 0 0 310 0 310 -320 0 -320 0 0 -310z"/>
<path d="M36080 32630 l0 -340 -445 0 -445 0 -2 -352 -3 -353 -597 -3 -598 -2
0 -320 0 -320 -710 0 -710 0 0 -320 0 -319 133 -3 132 -3 3 -1232 2 -1233 320
0 320 0 2 1233 3 1232 263 3 262 2 0 320 0 320 590 0 590 0 0 -1555 0 -1555
2225 0 2225 0 0 2230 0 2230 -1475 0 -1475 0 0 340 0 340 -305 0 -305 0 0
-340z m2850 -2570 l0 -1520 -1517 2 -1518 3 -3 1505 c-1 828 0 1511 3 1518 3
9 317 12 1520 12 l1515 0 0 -1520z"/>
<path d="M36490 30060 l0 -920 920 0 920 0 0 920 0 920 -920 0 -920 0 0 -920z"/>
<path d="M18650 29455 l0 -955 165 0 165 0 0 785 0 785 785 0 785 0 -2 168 -3
167 -947 3 -948 2 0 -955z"/>
<path d="M27027 30403 c-4 -3 -7 -80 -7 -170 l0 -163 780 0 780 0 2 -782 3
-783 168 -3 167 -2 0 955 0 955 -943 0 c-519 0 -947 -3 -950 -7z"/>
<path d="M34010 29045 l0 -1215 320 0 320 0 0 1215 0 1215 -320 0 -320 0 0
-1215z"/>
<path d="M19880 27940 l0 -1220 1225 0 1225 0 0 1220 0 1220 -1225 0 -1225 0
0 -1220z m2052 808 c2 -13 2 -386 0 -830 l-2 -808 -825 0 -825 0 0 830 0 830
824 0 825 0 3 -22z"/>
<path d="M20604 28437 c-2 -7 -3 -235 -2 -507 l3 -495 503 -3 502 -2 0 510 0
510 -500 0 c-383 -1 -502 -4 -506 -13z"/>
<path d="M22720 28980 l0 -180 170 0 170 0 0 -195 0 -195 170 0 170 0 0 375 0
374 -340 0 -340 0 0 -179z"/>
<path d="M25870 28815 l0 -345 -85 0 -85 0 0 -175 0 -175 450 0 450 0 0 170 0
170 175 0 175 0 0 -170 0 -170 178 2 177 3 0 170 0 170 -177 3 -178 2 0 165 0
165 363 2 362 3 3 178 2 177 -430 0 -430 0 0 -175 0 -175 -102 0 c-57 0 -109
-4 -115 -8 -9 -6 -13 -56 -15 -172 -2 -91 -6 -164 -10 -162 -5 1 -84 2 -178 2
l-170 0 0 345 0 345 -180 0 -180 0 0 -345z"/>
<path d="M24590 28955 l0 -195 -275 0 -275 0 0 -175 c0 -96 3 -174 8 -174 4 1
208 1 455 0 l447 -1 0 -505 0 -505 -290 0 -290 0 0 -180 0 -180 690 0 690 0 0
-215 0 -215 175 0 175 0 0 -160 c0 -88 1 -163 3 -167 1 -5 -47 -10 -108 -13
l-110 -5 -3 -172 -2 -173 -185 0 -185 0 -2 173 -3 172 -175 0 c-133 0 -175 -3
-176 -12 -1 -7 -2 -85 -3 -173 l-1 -160 -85 0 -85 0 0 -170 0 -170 455 0 455
0 0 170 0 170 170 0 170 0 0 -170 0 -170 180 0 180 0 0 170 0 170 -175 0 -175
0 0 170 0 170 180 0 180 0 0 -175 0 -175 355 0 c331 0 355 -1 355 -17 1 -10 0
-116 0 -235 l-1 -217 23 -6 c13 -3 93 -4 178 -3 l155 3 3 653 2 652 -177 -2
-178 -3 -3 -235 -2 -235 -173 1 -172 2 -3 176 -2 176 -425 0 -425 0 0 295 0
295 175 0 175 0 0 105 0 105 610 0 610 0 0 180 0 180 -610 0 -610 0 0 105 0
105 -180 0 -180 0 3 -295 2 -295 -400 0 -400 0 3 657 c1 362 0 668 -3 681 -5
22 -7 22 -180 22 l-175 0 0 195 0 195 -180 0 -180 0 0 -195z"/>
<path d="M23410 27525 l0 -915 175 0 175 0 0 -345 0 -345 175 0 175 0 0 -350
0 -350 180 0 180 0 0 -410 0 -410 -240 0 -240 0 0 389 0 389 -177 -2 -178 -1
-3 -187 -2 -188 -550 0 -550 0 0 175 0 175 350 0 350 0 0 180 0 180 -357 -2
-358 -3 -2 -160 c-2 -88 -3 -166 -3 -172 0 -10 -76 -13 -345 -13 l-345 0 0
175 0 175 -357 -2 -358 -3 0 -175 0 -175 358 -3 357 -2 0 -175 0 -175 355 0
355 0 0 -170 0 -170 550 0 550 0 0 -30 0 -30 -1510 0 -1510 0 0 139 c0 90 -4
142 -11 147 -6 3 -168 3 -360 -1 l-349 -8 0 -138 0 -139 -564 -2 c-552 -3
-565 -3 -592 -24 -54 -40 -69 -70 -69 -139 0 -69 15 -99 69 -139 27 -21 40
-21 769 -26 l742 -5 3 -57 3 -58 654 0 655 0 0 60 0 60 455 0 455 0 0 -385 0
-385 170 0 170 0 0 -175 0 -175 -170 0 -170 0 0 -180 0 -180 170 0 170 0 0
175 0 174 160 3 c88 2 165 2 170 0 6 -2 10 -122 10 -323 l0 -319 -175 0 -175
0 0 -285 0 -285 -180 0 -180 0 0 -180 0 -180 653 2 652 3 3 178 3 177 -300 0
-301 0 0 280 c0 260 1 280 18 280 9 0 89 2 177 3 l160 2 3 393 2 392 -180 0
-180 0 0 110 0 110 -170 0 -170 0 0 185 0 185 170 0 170 0 0 180 0 180 -170 0
c-163 0 -170 1 -170 20 0 20 7 20 410 20 l410 0 0 -320 0 -320 180 0 180 0 0
265 0 265 680 0 680 0 0 55 0 55 1733 2 1734 3 35 27 c71 54 85 151 34 228
-48 73 -9 70 -825 70 l-731 0 0 65 0 65 173 2 172 3 0 170 0 170 -177 3 -178
2 0 -170 0 -170 -185 0 -185 0 0 170 0 170 -100 0 -100 0 0 175 0 175 -1140 0
-1140 0 0 355 0 355 -175 2 -175 3 -3 345 -2 345 -165 2 c-91 1 -171 2 -177 2
-10 1 -13 188 -13 901 l0 900 -175 0 -175 0 0 -915z m3180 -2820 l0 -165 -260
0 -260 0 0 90 0 90 -175 0 -175 0 0 -160 0 -160 -185 0 -185 0 0 235 0 235
620 0 620 0 0 -165z"/>
<path d="M22470 28210 l0 -180 170 0 170 0 0 -185 0 -185 -170 0 -170 0 0
-180 0 -180 170 0 170 0 0 -85 0 -86 170 1 170 2 -2 451 -3 452 -167 3 -168 2
0 175 0 175 -170 0 -170 0 0 -180z"/>
<path d="M24160 27910 l0 -260 255 0 255 0 0 260 0 260 -255 0 -255 0 0 -260z"/>
<path d="M25530 27770 l0 -170 180 0 180 0 0 170 0 170 -180 0 -180 0 0 -170z"/>
<path d="M24577 26863 c-4 -3 -7 -186 -7 -405 l0 -399 158 3 157 3 2 388 c1
213 0 394 -3 402 -5 12 -32 15 -153 15 -81 0 -151 -3 -154 -7z"/>
<path d="M20120 26385 l0 -175 155 0 155 0 0 -175 0 -175 -270 0 -270 0 0
-180 0 -180 270 0 270 0 0 -175 0 -175 210 0 210 0 0 180 0 180 -210 0 -210 0
0 175 0 175 1040 0 1040 0 0 175 0 175 355 0 355 0 0 175 0 175 -360 0 -361 0
1 -162 c0 -90 1 -169 0 -175 0 -10 -174 -13 -835 -13 l-835 0 0 175 0 175
-355 0 -355 0 0 -175z"/>
<path d="M15854 26189 c-33 -12 -603 -396 -844 -568 -771 -552 -1289 -996
-1571 -1346 -160 -199 -390 -602 -909 -1595 -566 -1082 -743 -1391 -1160
-2025 -337 -511 -418 -652 -530 -915 -243 -570 -374 -1286 -470 -2565 -89
-1202 -167 -2631 -219 -4045 -11 -294 -23 -590 -26 -657 -6 -114 -5 -123 15
-143 25 -25 71 -26 94 -2 14 16 18 60 26 293 65 1787 154 3449 250 4679 102
1299 248 1998 541 2583 88 174 167 304 430 704 367 556 624 998 991 1703 709
1359 912 1718 1104 1948 96 114 341 356 504 496 402 346 1016 801 1595 1184
121 80 230 155 243 166 22 19 29 60 14 83 -12 19 -55 31 -78 22z"/>
<path d="M23230 25750 l0 -170 180 0 180 0 0 170 0 170 -180 0 -180 0 0 -170z"/>
<path d="M20023 25153 c-10 -3 -13 -49 -13 -179 l0 -174 210 0 210 0 -2 178
-3 177 -195 2 c-107 1 -201 -1 -207 -4z"/>
<path d="M21330 24630 l0 -180 213 2 212 3 0 175 0 175 -212 3 -213 2 0 -180z"/>
<path d="M13897 24192 c-25 -27 -22 -78 6 -96 12 -8 80 -30 151 -51 356 -100
737 -260 1000 -419 62 -37 121 -66 136 -66 51 0 80 68 45 104 -29 29 -193 125
-332 195 -251 125 -511 226 -802 312 -151 44 -181 47 -204 21z"/>
<path d="M19885 23808 c-3 -7 -4 -557 -3 -1223 l3 -1210 1220 0 1220 0 0 1220
0 1220 -1218 3 c-969 2 -1219 0 -1222 -10z m2046 -403 c1 -8 2 -22 2 -30 0 -8
-1 -373 -2 -810 l-1 -795 -825 0 -825 0 0 825 0 825 825 0 c726 0 825 -2 826
-15z"/>
<path d="M20600 22595 l0 -505 505 0 505 0 0 505 0 505 -505 0 -505 0 0 -505z"/>
<path d="M25235 23808 c-3 -7 -4 -558 -3 -1223 l3 -1210 1220 0 1220 0 0 1220
0 1220 -1218 3 c-977 2 -1218 0 -1222 -10z m2045 -1213 l0 -825 -825 0 -825 0
0 825 0 825 825 0 825 0 0 -825z"/>
<path d="M25950 22595 l0 -505 505 0 505 0 0 505 0 505 -505 0 -505 0 0 -505z"/>
<path d="M13525 23766 c-14 -14 -25 -34 -25 -44 0 -41 33 -59 180 -102 378
-109 750 -266 1021 -431 53 -32 106 -59 116 -59 26 0 63 41 63 68 0 32 -25 52
-159 132 -267 158 -631 310 -991 414 -177 52 -175 51 -205 22z"/>
<path d="M24280 23255 l0 -175 -240 0 -240 0 0 -180 0 -180 75 0 75 0 2 -672
3 -673 175 0 175 0 3 673 2 672 145 0 145 0 0 175 0 175 220 1 c121 1 226 2
233 3 9 1 12 43 12 176 l0 175 -392 3 -393 2 0 -175z"/>
<path d="M24594 22697 c-2 -7 -3 -307 -2 -667 l3 -655 178 -3 177 -2 0 670 0
670 -175 0 c-133 0 -177 -3 -181 -13z"/>
<path d="M18650 21080 l0 -950 950 0 950 0 -2 168 -3 167 -782 3 -783 2 0 780
0 780 -165 0 -165 0 0 -950z"/>
<path d="M28587 22023 c-4 -3 -7 -354 -7 -780 l0 -773 -777 -2 -778 -3 -3
-167 -2 -168 950 0 950 0 0 950 0 950 -163 0 c-90 0 -167 -3 -170 -7z"/>
<path d="M11809 13839 c-21 -21 -22 -25 -16 -353 3 -198 12 -387 21 -471 45
-396 125 -708 239 -928 44 -86 67 -104 110 -88 46 18 44 49 -11 163 -155 318
-229 731 -239 1338 -4 273 -8 328 -21 343 -21 23 -57 22 -83 -4z"/>
<path d="M12152 13384 c-29 -20 -28 -46 4 -203 126 -625 349 -1176 593 -1469
65 -78 90 -91 126 -68 43 28 34 64 -42 159 -236 293 -446 830 -568 1452 -24
120 -37 145 -75 145 -8 0 -26 -7 -38 -16z"/>
<path d="M5627 4287 c-978 -2223 -1802 -4097 -1832 -4164 l-54 -123 8157 0
8157 0 668 1501 c368 826 667 1502 665 1503 -2 2 -1672 639 -3713 1416 -2041
776 -5181 1973 -6980 2657 -1798 685 -3274 1247 -3280 1249 -5 2 -810 -1815
-1788 -4039z"/>
</g>
</svg>
